<!DOCTYPE svg PUBLIC "-//W3C//DTD SVG 20010904//EN" "http://www.w3.org/TR/2001/REC-SVG-20010904/DTD/svg10.dtd">
<svg version="1.0" xmlns="http://www.w3.org/2000/svg" width="900px" height="900px" viewBox="0 0 9000 9000" preserveAspectRatio="xMidYMid meet">
<g id="layer101" fill="#080808" stroke="none">
 <path d="M0 4500 l0 -4500 4500 0 4500 0 0 4500 0 4500 -4500 0 -4500 0 0 -4500z"/>
 </g>
<g id="layer102" fill="#fefefe" stroke="none">
 <path d="M0 4500 l0 -4500 4500 0 4500 0 0 4500 0 4500 -4500 0 -4500 0 0 -4500z m1360 2561 c135 -27 367 -57 645 -82 132 -12 272 -25 310 -30 284 -34 645 -39 1680 -24 540 8 815 -4 1165 -50 220 -29 266 -35 375 -45 426 -39 1211 -54 1575 -30 169 11 1097 16 1182 6 87 -10 128 -27 161 -68 64 -79 52 -178 -38 -317 -24 -38 -91 -158 -147 -267 -260 -508 -370 -708 -485 -888 -18 -28 -36 -58 -40 -66 -13 -28 -137 -203 -252 -356 -77 -102 -234 -295 -305 -374 -23 -25 -68 -77 -101 -115 -60 -70 -89 -102 -245 -275 -150 -166 -222 -244 -259 -280 -20 -19 -99 -105 -176 -190 -77 -85 -158 -173 -180 -195 -22 -22 -64 -67 -93 -100 -29 -33 -61 -69 -71 -80 -10 -11 -60 -67 -111 -125 -99 -112 -135 -152 -264 -294 -123 -135 -217 -236 -261 -282 -22 -22 -74 -78 -115 -124 -150 -168 -200 -221 -531 -555 -185 -187 -372 -380 -416 -430 -44 -49 -130 -144 -192 -210 -61 -66 -111 -125 -111 -131 0 -12 120 -264 143 -298 6 -11 40 -63 73 -115 34 -53 78 -118 98 -146 43 -59 48 -106 14 -129 -31 -22 -68 -20 -100 7 -35 29 -187 205 -220 254 -14 21 -56 84 -92 141 -37 56 -71 102 -76 102 -5 0 -13 -6 -17 -14 -4 -8 -37 -45 -73 -83 -36 -38 -96 -107 -135 -154 -112 -135 -219 -241 -280 -278 -55 -33 -57 -34 -89 -18 -82 38 -46 117 184 407 41 52 78 96 82 98 4 2 39 45 78 95 38 51 83 108 99 127 17 19 31 46 31 60 0 14 -25 77 -56 140 -171 350 -240 498 -329 700 -37 85 -87 196 -110 245 -23 50 -49 106 -58 125 -8 19 -24 55 -35 80 -10 25 -33 77 -50 115 -17 39 -49 115 -72 170 -24 55 -53 123 -65 150 -12 28 -53 122 -90 210 -37 88 -101 229 -141 314 -41 84 -74 154 -74 156 0 2 -25 56 -56 121 -31 66 -65 142 -76 169 -44 114 -257 517 -344 652 -19 29 -92 155 -163 280 -70 126 -154 271 -185 323 -31 52 -95 174 -142 270 -47 96 -90 183 -95 192 -35 67 -153 308 -185 378 -57 125 -132 270 -209 400 -174 294 -215 379 -239 496 -13 61 -15 91 -7 123 11 51 67 113 114 129 41 14 128 8 247 -17z"/>
 <path d="M1300 6780 c0 -5 15 -38 34 -73 35 -66 48 -88 103 -174 18 -28 33 -54 33 -57 0 -3 20 -36 44 -73 56 -87 102 -180 186 -373 73 -168 157 -347 196 -421 13 -26 24 -52 24 -59 0 -7 15 -38 34 -69 18 -31 58 -103 88 -161 30 -58 68 -128 85 -156 17 -27 42 -70 55 -95 65 -114 123 -212 178 -299 95 -152 397 -732 450 -866 17 -41 34 -82 39 -91 6 -10 28 -58 50 -108 21 -49 68 -151 104 -225 71 -148 170 -372 267 -605 34 -82 68 -163 75 -180 8 -16 50 -118 95 -225 44 -107 91 -220 105 -250 13 -30 42 -102 65 -160 23 -58 46 -109 50 -115 4 -5 17 -37 29 -70 12 -33 33 -82 46 -110 26 -56 101 -215 164 -348 23 -48 45 -87 49 -87 11 0 46 39 222 245 84 99 316 344 515 545 198 201 423 435 499 520 77 85 191 209 255 275 64 67 164 175 223 240 327 368 404 452 524 575 72 74 154 160 180 191 27 31 99 114 159 184 167 195 328 376 450 507 168 181 323 376 420 528 27 41 76 118 110 170 85 132 113 179 182 305 63 116 69 127 295 575 79 157 151 295 158 307 10 15 11 26 5 32 -13 13 -275 14 -1205 5 -906 -8 -1117 1 -1725 77 -408 51 -439 53 -970 53 -280 0 -733 -2 -1005 -6 -272 -3 -542 -2 -600 2 -152 11 -606 47 -813 65 -98 9 -251 27 -340 40 -186 28 -187 28 -187 15z m2014 -1435 c28 -12 46 -13 74 -6 86 22 196 23 362 2 321 -40 366 -42 1055 -39 l674 3 35 -34 c30 -29 36 -42 36 -77 0 -38 -5 -46 -41 -75 -36 -28 -51 -33 -127 -40 -203 -19 -1432 11 -1472 36 -4 3 -54 11 -111 19 -131 19 -216 39 -321 75 -46 16 -98 32 -116 36 -19 4 -45 20 -59 36 -14 16 -34 31 -44 34 -25 8 -25 45 0 45 10 0 35 -7 55 -15z m165 -1131 c26 -33 26 -55 2 -108 -68 -144 -71 -155 -71 -255 0 -63 7 -124 20 -176 32 -126 33 -148 9 -178 -23 -30 -69 -36 -89 -13 -6 8 -18 39 -25 68 -7 29 -24 80 -37 113 -19 52 -22 78 -22 195 0 116 3 145 23 205 30 88 67 144 106 161 44 19 61 17 84 -12z m1311 -9 c32 -34 23 -66 -72 -275 -51 -112 -59 -139 -65 -214 -9 -129 -30 -148 -67 -63 -40 90 -49 152 -32 238 22 116 69 228 119 282 36 39 50 48 88 56 3 0 16 -10 29 -24z"/>
 </g>

</svg>